<?xml version="1.0" standalone="no"?><!DOCTYPE svg PUBLIC "-//W3C//DTD SVG 1.1//EN" "http://www.w3.org/Graphics/SVG/1.1/DTD/svg11.dtd"><svg t="1656650461470" class="icon" viewBox="0 0 1024 1024" version="1.1" xmlns="http://www.w3.org/2000/svg" p-id="4266" xmlns:xlink="http://www.w3.org/1999/xlink" width="200" height="200"><defs><style type="text/css"></style></defs><path d="M864 64H608a32 32 0 0 0-32 32v224H448V96a32 32 0 0 0-32-32H160a32 32 0 0 0-32 32v832a32 32 0 0 0 32 32h256a32 32 0 0 0 32-32V640h128v288a32 32 0 0 0 32 32h256a32 32 0 0 0 32-32V96a32 32 0 0 0-32-32z m-160 64v192h-64V128z m-512 0h64v768h-64z m224 448a32 32 0 0 0-32 32v288h-64V128h64v320a64.07 64.07 0 0 0 64 64h96a32 32 0 0 1 32 32v32z m224-32a95.56 95.56 0 0 0-5.49-32H704v384h-64z m192 352h-64V512a64.07 64.07 0 0 0-64-64H448v-64h288a32 32 0 0 0 32-32V128h64z" fill="#5C5C66" p-id="4267"></path></svg>